# xmcd CD database file
# Copyright (C) 1996 Ti Kan
#
# Track frame offsets:
#  200
#  19590
#  41190
#  70075
#
# Disc length: 1197 seconds
#
# Revision: 1
# Processed by: cddbd v1.4b41PL1 Copyright (c) Steve Scherf et al.
# Submitted via: CDWizzard Release:4.12
#
DISCID=2d04ab04
DTITLE=A Certain Ratio  - Loosen Up Your Mind
DYEAR=1900
DGENRE=
TTITLE0=Loosen Up Your Mind (7")
TTITLE1=The Planet (12")
TTITLE2=Loosen Up Your Mind (12")
TTITLE3=The Planet [CD Edit)
EXTD=
EXTT0=
EXTT1=
EXTT2=
EXTT3=
PLAYORDER=
